<svg width="21" height="22" viewBox="0 0 21 22" fill="none" xmlns="http://www.w3.org/2000/svg">
<path d="M18.6199 6.1002L10.2724 14.4477C9.44116 15.2789 6.97364 15.6639 6.42239 15.1127C5.87114 14.5614 6.24739 12.0939 7.07864 11.2627L15.4349 2.90642C15.641 2.6816 15.8904 2.50088 16.1683 2.37514C16.4462 2.2494 16.7466 2.18124 17.0516 2.17482C17.3564 2.1684 17.6595 2.22382 17.9424 2.33776C18.2253 2.45169 18.4822 2.62179 18.6975 2.83774C18.9129 3.05369 19.0823 3.31103 19.1954 3.59423C19.3085 3.87744 19.3632 4.18063 19.356 4.48552C19.3487 4.79042 19.2797 5.09071 19.1532 5.36822C19.0267 5.64572 18.8453 5.89474 18.6199 6.1002Z" stroke="white" stroke-width="1.9375" stroke-linecap="round" stroke-linejoin="round"/>
<path d="M9.625 4.00049H5.25C4.32174 4.00049 3.43156 4.36923 2.77518 5.02561C2.1188 5.68199 1.75 6.57223 1.75 7.50049V16.2505C1.75 17.1788 2.1188 18.069 2.77518 18.7253C3.43156 19.3818 4.32174 19.7505 5.25 19.7505H14.875C16.8088 19.7505 17.5 18.1755 17.5 16.2505V11.8755" stroke="white" stroke-width="1.9375" stroke-linecap="round" stroke-linejoin="round"/>
</svg>
