<svg width="18" height="18" viewBox="0 0 18 18" fill="none" xmlns="http://www.w3.org/2000/svg">
<g clip-path="url(#clip0_208_1839)">
<path d="M7.5 8.25011C7.5 7.42286 8.17275 6.75011 9 6.75011C9.82725 6.75011 10.5 7.42286 10.5 8.25011C10.5 9.07736 9.82725 9.75011 9 9.75011C8.17275 9.75011 7.5 9.07736 7.5 8.25011ZM11.25 14.2501H6.75C6.336 14.2501 6 14.5861 6 15.0001V18.0001H12V15.0001C12 14.5861 11.664 14.2501 11.25 14.2501ZM18 18.0001H13.5V15.0001C13.5 13.7596 12.4905 12.7501 11.25 12.7501H6.75C5.5095 12.7501 4.5 13.7596 4.5 15.0001V18.0001H0V7.55561C0 6.83636 0.32475 6.16961 0.89025 5.72636L7.569 0.493609C8.41275 -0.167141 9.58725 -0.167141 10.431 0.493609L17.1097 5.72636C17.6752 6.17036 18 6.83636 18 7.55561V18.0001ZM12 8.25011C12 6.59561 10.6545 5.25011 9 5.25011C7.3455 5.25011 6 6.59561 6 8.25011C6 9.90461 7.3455 11.2501 9 11.2501C10.6545 11.2501 12 9.90461 12 8.25011Z" fill="currentColor"/>
</g>
<defs>
<clipPath id="clip0_208_1839">
<rect width="18" height="18" fill="currentColor"/>
</clipPath>
</defs>
</svg>
