<svg width="32" height="32" viewBox="0 0 32 32" fill="none" xmlns="http://www.w3.org/2000/svg">
<g clip-path="url(#clip0_158_1250)">
<path d="M8.43867 23.6866C7.79067 24.3493 6.66667 23.8906 6.66667 22.9639V21.3333H2C0.896 21.3333 0 20.4386 0 19.3333C0 18.2279 0.896 17.3333 2 17.3333H6.66667V15.7026C6.66667 14.7759 7.792 14.3173 8.44 14.9799L11.748 18.3639C12.284 18.8986 12.284 19.7679 11.748 20.3013L8.44 23.6853L8.43867 23.6866ZM22 14.6666C20.896 14.6666 20 15.5626 20 16.6666C20 17.7706 20.896 18.6666 22 18.6666C23.104 18.6666 24 17.7706 24 16.6666C24 15.5626 23.104 14.6666 22 14.6666ZM32 7.61461V27.3333C32 29.9066 29.9067 31.9999 27.3333 31.9999H12.6667C10.0933 31.9999 8 29.9066 8 27.3333C8 26.2279 8.896 25.3333 10 25.3333C11.104 25.3333 12 26.2279 12 27.3333C12 27.7013 12.3 27.9999 12.6667 27.9999H14.6667V6.66661H14C12.8973 6.66661 12 7.56394 12 8.66661V11.3333C12 12.4386 11.104 13.3333 10 13.3333C8.896 13.3333 8 12.4386 8 11.3333V8.66661C8 5.35861 10.692 2.66661 14 2.66661H15.7147C16.0373 2.18794 16.4053 1.73727 16.864 1.36127C18.26 0.217273 20.08 -0.234727 21.8427 0.117273L26.6413 1.07727C29.7467 1.69861 32 4.44794 32 7.61461ZM28 7.61461C28 6.34794 27.0987 5.24794 25.8573 4.99994L21.0587 4.03994C20.4707 3.92394 19.864 4.07327 19.3987 4.45461C18.9333 4.83594 18.6667 5.39994 18.6667 6.00127V27.9999H27.3333C27.7 27.9999 28 27.7013 28 27.3333V7.61461Z" fill="currentColor"/>
</g>
<defs>
<clipPath id="clip0_158_1250">
<rect width="32" height="32" fill="white"/>
</clipPath>
</defs>
</svg>
