<svg width="21" height="20" viewBox="0 0 21 20" fill="none" xmlns="http://www.w3.org/2000/svg">
<g clip-path="url(#clip0_158_1254)">
<path d="M11.3751 10.8333V13.3333C11.3751 13.7942 10.9831 14.1667 10.5001 14.1667C10.0171 14.1667 9.62506 13.7942 9.62506 13.3333V10.8333H7.00005C6.51705 10.8333 6.12505 10.4608 6.12505 10C6.12505 9.53917 6.51705 9.16667 7.00005 9.16667H9.62506V6.66667C9.62506 6.20583 10.0171 5.83333 10.5001 5.83333C10.9831 5.83333 11.3751 6.20583 11.3751 6.66667V9.16667H14.0001C14.4831 9.16667 14.8751 9.53917 14.8751 10C14.8751 10.4608 14.4831 10.8333 14.0001 10.8333H11.3751ZM21.0342 4.16667V12.4408C21.0342 13.7758 20.4882 15.0308 19.4968 15.9767L16.8088 18.535C15.8183 19.48 14.4997 20 13.0962 20H4.40918C1.9968 20 0.0341797 18.1308 0.0341797 15.8333V4.16667C0.0341797 1.86917 1.9968 0 4.40918 0H16.6592C19.0716 0 21.0342 1.86917 21.0342 4.16667ZM13.1592 18.3325V15C13.1592 13.6217 14.3369 12.5 15.7842 12.5H19.2833C19.2833 12.48 19.2833 4.16667 19.2833 4.16667C19.2833 2.78833 18.1056 1.66667 16.6583 1.66667H4.40918C2.96193 1.66667 1.78418 2.78833 1.78418 4.16667V15.8333C1.78418 17.2117 2.96193 18.3333 4.40918 18.3333C4.40918 18.3333 13.1382 18.3325 13.1592 18.3325ZM18.2596 14.7983C18.4617 14.6058 18.6358 14.3933 18.7802 14.1667H15.7842C15.3021 14.1667 14.9092 14.54 14.9092 15V17.8533C15.1472 17.7158 15.3694 17.55 15.5716 17.3575L18.2596 14.7992V14.7983Z" fill="currentColor"/>
</g>
<defs>
<clipPath id="clip0_158_1254">
<rect width="21" height="20" fill="white"/>
</clipPath>
</defs>
</svg>
