<svg width="21" height="21" viewBox="0 0 21 21" fill="none" xmlns="http://www.w3.org/2000/svg">
<g clip-path="url(#clip0_208_1844)">
<path d="M8.75 15.75C8.75 14.7831 9.53312 14 10.5 14C11.4669 14 12.25 14.7831 12.25 15.75C12.25 16.7169 11.4669 17.5 10.5 17.5C9.53312 17.5 8.75 16.7169 8.75 15.75ZM1.3125 15.75C1.3125 16.7169 2.09562 17.5 3.0625 17.5C4.02938 17.5 4.8125 16.7169 4.8125 15.75C4.8125 14.7831 4.02938 14 3.0625 14C2.09562 14 1.3125 14.7831 1.3125 15.75ZM2.625 8.3125C2.625 8.07187 2.821 7.875 3.0625 7.875H5.25V13.125H7.875V7.875H13.125V5.25H3.0625C1.37375 5.25 0 6.62375 0 8.3125V13.125H2.625V8.3125ZM3.9375 4.375C5.14587 4.375 6.125 3.39587 6.125 2.1875C6.125 0.979125 5.14587 0 3.9375 0C2.72913 0 1.75 0.979125 1.75 2.1875C1.75 3.39587 2.72913 4.375 3.9375 4.375ZM4.375 18.375H1.75C0.783125 18.375 0 19.1581 0 20.125V21H6.125V20.125C6.125 19.1581 5.34188 18.375 4.375 18.375ZM17.9375 17.5C18.9044 17.5 19.6875 16.7169 19.6875 15.75C19.6875 14.7831 18.9044 14 17.9375 14C16.9706 14 16.1875 14.7831 16.1875 15.75C16.1875 16.7169 16.9706 17.5 17.9375 17.5ZM17.9375 0H7.21C7.62912 0.625625 7.875 1.37812 7.875 2.1875C7.875 2.33713 7.847 2.47975 7.83125 2.625H17.9375C18.179 2.625 18.375 2.82188 18.375 3.0625V10.5H16.625V8.75H13.125V10.5H9.625V13.125H21V3.0625C21 1.37375 19.6262 0 17.9375 0ZM19.25 18.375H16.625C15.6581 18.375 14.875 19.1581 14.875 20.125V21H21V20.125C21 19.1581 20.2169 18.375 19.25 18.375ZM11.8125 18.375H9.1875C8.22062 18.375 7.4375 19.1581 7.4375 20.125V21H13.5625V20.125C13.5625 19.1581 12.7794 18.375 11.8125 18.375Z" fill="currentColor"/>
</g>
<defs>
<clipPath id="clip0_208_1844">
<rect width="21" height="21" fill="currentColor"/>
</clipPath>
</defs>
</svg>
